<?xml version="1.0" encoding="utf-8"?>
<!-- Generator: Adobe Illustrator 16.0.3, SVG Export Plug-In . SVG Version: 6.00 Build 0)  -->
<!DOCTYPE svg PUBLIC "-//W3C//DTD SVG 1.1//EN" "http://www.w3.org/Graphics/SVG/1.1/DTD/svg11.dtd">
<svg version="1.1" id="Layer_1" xmlns="http://www.w3.org/2000/svg" xmlns:xlink="http://www.w3.org/1999/xlink" x="0px" y="0px"
	 width="2048px" height="2048px" viewBox="0 0 2048 2048" enable-background="new 0 0 2048 2048" xml:space="preserve">
<g id="Layer_x0020_1">
	<path fill="#215A73" d="M1582.48,1627.13l120.816-1353.38l1.585-17.752h-17.805H360.917h-17.802l1.581,17.752l120.689,1353.6
		l1.006,11.286l10.872,3.018l541.588,150.346h8.686l543.063-150.568l10.87-3.014l1.008-11.289L1582.48,1627.13z M1025.111,555.45
		h395.75l-11.912,138.491l-390.414,173.558l6.576,31.226h366.391l-42.175,483.262l-325.538,90.258l-325.432-90.106l-20.667-231.442
		h134l10.737,117.345l1.042,11.374l11.026,2.93l186.464,49.539l8.493-0.064l184.315-51.231l10.979-3.053l0.964-11.315
		l18.428-216.731l1.504-17.688h-17.788h-202.742h-358.43l-12.198-139.091l377.014-161.362l26.762-11.469l-6.386-31.354h-26.762
		H637.3l-11.81-133.074h397.936L1025.111,555.45L1025.111,555.45z"/>
</g>
<rect x="0" fill="none" width="2048" height="2048"/>
</svg>
