<?xml version="1.0" encoding="utf-8"?>
<!-- Generator: Adobe Illustrator 16.0.3, SVG Export Plug-In . SVG Version: 6.00 Build 0)  -->
<!DOCTYPE svg PUBLIC "-//W3C//DTD SVG 1.1//EN" "http://www.w3.org/Graphics/SVG/1.1/DTD/svg11.dtd">
<svg version="1.1" id="Layer_1" xmlns="http://www.w3.org/2000/svg" xmlns:xlink="http://www.w3.org/1999/xlink" x="0px" y="0px"
	 width="1883.258px" height="2048px" viewBox="76.578 0 1883.258 2048" enable-background="new 76.578 0 1883.258 2048"
	 xml:space="preserve">
<rect y="0" fill="none" width="2048" height="2048"/>
<g id="in" display="none">
	<path id="n_1_" display="inline" fill="#215A73" d="M856.78,764.534h230.738v117.824l0,0
		c34.366-58.914,112.915-117.824,230.743-117.824c245.464,0,270.013,142.371,270.013,348.566v427.11h-230.735v-387.837
		c0-88.37,4.905-191.468-117.826-191.468c-157.098,0-157.098,93.28-157.098,191.468v387.837H851.871L856.78,764.534L856.78,764.534z
		"/>
	<rect id="_x7C__1_" x="473.848" y="764.534" display="inline" fill="#215A73" width="230.742" height="775.677"/>
	<path id="_x28____x29__1_" display="inline" fill="#215A73" d="M586.763,371.785c75.92,0,137.463,61.543,137.463,137.463
		c0,75.916-61.543,137.463-137.463,137.463c-75.916,0-137.458-61.547-137.458-137.463
		C449.305,433.328,510.848,371.785,586.763,371.785z"/>
</g>
<path id="Cat_2_" fill="#215A73" d="M1229.043,1540.211h-154.898h-154.9c0,0,0-92.938,0-154.896
	c-212.982,46.471-271.072-116.173-271.072-116.173c-38.721-77.45-77.447-116.174-77.447-116.174c-77.447-46.47,0-38.723,0-38.723
	c77.447,0,116.173,77.446,116.173,77.446c69.703,116.174,189.751,96.813,232.346,77.45c0-38.724,15.489-96.81,38.728-116.174
	c-170.388-19.363-309.799-116.172-309.799-309.795s38.726-232.347,77.452-271.07c-7.747-19.363-38.726-89.066,0-193.623
	c0,0,77.447,0,154.894,116.173c38.726-38.723,154.9-38.723,193.626-38.723c38.726,0,154.898,0,193.619,38.723
	c77.453-116.173,154.899-116.173,154.899-116.173c42.596,104.557,7.744,174.26,0,193.623c38.727,38.723,77.446,77.447,77.446,271.07
	s-139.404,290.432-309.792,309.795c23.231,19.364,38.726,85.194,38.726,116.174V1540.211L1229.043,1540.211z"/>
<rect x="1500.109" y="912.5" display="none" fill="#282828" width="459.727" height="627.711"/>
<rect x="76.578" y="912.5" display="none" fill="#282828" width="459.727" height="627.711"/>
</svg>
