<?xml version="1.0" encoding="utf-8"?>
<!-- Generator: Adobe Illustrator 16.0.3, SVG Export Plug-In . SVG Version: 6.00 Build 0)  -->
<!DOCTYPE svg PUBLIC "-//W3C//DTD SVG 1.1//EN" "http://www.w3.org/Graphics/SVG/1.1/DTD/svg11.dtd">
<svg version="1.1" id="Layer_1" xmlns="http://www.w3.org/2000/svg" xmlns:xlink="http://www.w3.org/1999/xlink" x="0px" y="0px"
	 width="2048px" height="2048px" viewBox="0 0 2048 2048" enable-background="new 0 0 2048 2048" xml:space="preserve">
<g id="Layer_x0020_1">
	<path fill="#215A73" d="M1582.459,1627.15L1703.274,273.76l1.585-17.753h-17.805H360.953h-17.803l1.583,17.753L465.416,1627.36
		l1.007,11.284l10.872,3.019l541.558,150.34h8.684l543.051-150.552l10.869-3.014l1.009-11.289L1582.459,1627.15z M1024.002,565.39
		h397.49l-2.388,26.791l-7.567,84.159l-1.994,22.374h-385.542h-0.57H789.149h-17.804l1.585,17.752l15.174,170.001l1.334,14.942
		h14.885h219.109h0.57h340.59h26.897l-2.433,26.761v0.063l-39.018,437.067l-1.491,16.754l-325.357,90.181l-324.809-90.177
		l-20.669-231.626h59.012h74.953l10.486,117.461l1.018,11.4l10.988,2.967l184.89,49.924h8.429l0.158-0.042l12.133-3.242v-0.044
		l173.021-46.699l10.985-2.968l1.021-11.4l19.27-215.313l1.588-17.752h-17.808h-203.854h-0.57H667.384l-39.472-442.544
		l-2.391-26.791h397.91H1024.002L1024.002,565.39z"/>
</g>
<rect x="0" fill="none" width="2048" height="2048"/>
</svg>
