<?xml version="1.0" encoding="utf-8"?>
<!-- Generator: Adobe Illustrator 16.0.3, SVG Export Plug-In . SVG Version: 6.00 Build 0)  -->
<!DOCTYPE svg PUBLIC "-//W3C//DTD SVG 1.1//EN" "http://www.w3.org/Graphics/SVG/1.1/DTD/svg11.dtd">
<svg version="1.1" xmlns="http://www.w3.org/2000/svg" xmlns:xlink="http://www.w3.org/1999/xlink" x="0px" y="0px"
	 width="241.885px" height="274.55px" viewBox="215.852 87.31 241.885 274.55"
	 enable-background="new 215.852 87.31 241.885 274.55" xml:space="preserve">
<g id="Layer_1" display="none">
	<g id="Layer_1_1_" display="inline">
		<g>
			<g>
				<path fill="#215A73" d="M265.455,134.716h41.648v117.178c0,52.578-25.379,71.277-65.449,71.277
					c-10.078,0-22.465-1.455-30.601-4.25l4.735-34c5.707,1.943,13.356,3.4,21.493,3.4c17.729,0,28.656-8.135,28.656-36.307
					L265.455,134.716L265.455,134.716z"/>
				<path fill="#215A73" d="M343.898,277.273c11.05,5.707,28.657,11.535,46.386,11.535c19.187,0,29.144-8.137,29.144-20.521
					c0-11.535-8.621-18.215-31.086-25.863c-30.601-11.05-51.121-28.171-51.121-55.494c0-31.085,26.836-55.007,70.307-55.007
					c21.008,0,36.309,4.25,47.357,9.593l-9.593,33.514c-7.164-3.399-20.521-8.621-38.25-8.621c-18.215,0-26.715,8.621-26.715,17.729
					c0,11.9,10.078,17.243,34.364,26.35c32.543,11.9,47.843,29.144,47.843,55.494c0,31.084-23.436,57.436-74.558,57.436
					c-21.007,0-42.136-5.707-52.578-11.537L343.898,277.273z"/>
			</g>
		</g>
	</g>
</g>
<g id="Layer_2" display="none">
	<rect x="137.749" y="29.544" display="inline" fill="#215A73" width="390" height="390"/>
</g>
<g id="Layer_3" display="none">
	<g display="inline">
		<polygon fill="#215A73" points="237.829,334.173 215.852,87.31 457.737,87.31 435.759,334.173 336.673,361.616 		"/>
		<polygon fill="#FAFAFA" points="336.795,199.022 296.724,199.022 293.931,168.06 336.795,168.06 336.795,137.702 336.673,137.702 
			260.902,137.702 261.631,145.837 269.037,229.379 336.795,229.379 		"/>
		<polygon fill="#FAFAFA" points="336.795,277.71 336.673,277.71 302.915,268.603 300.731,244.438 284.338,244.438 270.372,244.438 
			274.622,292.038 336.673,309.28 336.795,309.28 		"/>
		<polygon fill="#FAFAFA" points="336.673,199.022 336.673,229.379 373.952,229.379 370.431,268.603 336.673,277.71 336.673,309.28 
			398.723,292.038 399.209,286.938 406.373,207.158 407.102,199.022 398.966,199.022 		"/>
		<polygon fill="#FAFAFA" points="336.673,137.702 336.673,156.522 336.673,167.937 336.673,168.06 409.774,168.06 409.774,168.06 
			409.895,168.06 410.502,161.259 411.837,145.837 412.567,137.702 		"/>
	</g>
</g>
<g id="Layer_4">
	<g id="Layer_1_2_">
		<path fill="#215A73" d="M403.136,107.567c0-11.222-9.019-20.339-20.34-20.339H282.701c-11.222,0-20.338,9.018-20.338,20.339
			v233.954c0,11.223,9.018,20.338,20.338,20.338h99.995c11.223,0,20.338-9.019,20.338-20.338L403.136,107.567L403.136,107.567z
			 M346.926,110.573c0,1.804-1.502,3.207-3.206,3.207h-21.541c-1.804,0-3.207-1.503-3.207-3.207v-0.2
			c0-1.805,1.503-3.207,3.207-3.207h21.643c1.804,0,3.206,1.501,3.206,3.207v0.2H346.926z M332.498,350.439
			c-7.214,0-13.225-6.011-13.225-13.225c0-7.215,6.011-13.226,13.225-13.226s13.225,6.011,13.225,13.226
			C345.723,344.427,339.813,350.439,332.498,350.439z M393.216,313.767H272.582V133.518h120.733v180.249H393.216z"/>
	</g>
</g>
</svg>
