<?xml version="1.0" encoding="utf-8"?>
<!-- Generator: Adobe Illustrator 16.0.3, SVG Export Plug-In . SVG Version: 6.00 Build 0)  -->
<!DOCTYPE svg PUBLIC "-//W3C//DTD SVG 1.1//EN" "http://www.w3.org/Graphics/SVG/1.1/DTD/svg11.dtd">
<svg version="1.1" xmlns="http://www.w3.org/2000/svg" xmlns:xlink="http://www.w3.org/1999/xlink" x="0px" y="0px"
	 width="2705.266px" height="2048px" viewBox="0 0 2705.266 2048" enable-background="new 0 0 2705.266 2048" xml:space="preserve">
<g id="Layer_1" display="none">
	<g id="Layer_x0020_1" display="inline">
		<path fill="#215A73" d="M1582.459,1627.15L1703.274,273.76l1.585-17.753h-17.805H360.953h-17.803l1.583,17.753L465.416,1627.36
			l1.007,11.284l10.872,3.019l541.558,150.34h8.684l543.051-150.552l10.869-3.014l1.009-11.289L1582.459,1627.15z M1024.002,565.39
			h397.49l-2.388,26.791l-7.567,84.159l-1.994,22.374h-385.542h-0.57H789.149h-17.804l1.585,17.752l15.174,170.001l1.334,14.942
			h14.885h219.109h0.57h340.59h26.897l-2.433,26.761v0.063l-39.018,437.067l-1.491,16.754l-325.357,90.181l-324.809-90.177
			l-20.669-231.626h59.012h74.953l10.486,117.461l1.018,11.4l10.988,2.967l184.89,49.924h8.429l0.158-0.042l12.133-3.242v-0.044
			l173.021-46.699l10.985-2.968l1.021-11.4l19.27-215.313l1.588-17.752h-17.808h-203.854h-0.57H667.384l-39.472-442.544
			l-2.391-26.791h397.91H1024.002L1024.002,565.39z"/>
	</g>
	<rect x="0" display="inline" fill="none" width="2048" height="2048"/>
</g>
<g id="Layer_2">
	<g id="Layer_1_2_">
		<g id="Layer_1_1_">
			<g>
				<g>
					<path fill="#215A73" d="M783.298,287.804h333.666v938.727c0,421.209-203.317,571.009-524.319,571.009
						c-80.738,0-179.974-11.652-245.144-34.05l37.933-272.371c45.718,15.568,106.996,27.229,172.182,27.229
						c142.015,0,229.575-65.154,229.575-290.854L783.298,287.804L783.298,287.804z"/>
					<path fill="#215A73" d="M1411.725,1429.841c88.521,45.718,229.575,92.406,371.599,92.406
						c153.692,0,233.476-65.178,233.476-164.389c0-92.423-69.07-145.925-249.044-207.202
						c-245.144-88.522-409.532-225.683-409.532-444.561c0-249.027,214.978-440.665,563.224-440.665
						c168.306,0,290.878,34.05,379.399,76.85l-76.854,268.48c-57.402-27.237-164.405-69.07-306.43-69.07
						c-145.923,0-214.023,69.07-214.023,142.032c0,95.327,80.755,138.132,275.31,211.085
						c260.695,95.335,383.267,233.475,383.267,444.569c0,249.019-187.741,460.113-597.274,460.113
						c-168.305,0-337.564-45.727-421.216-92.431L1411.725,1429.841z"/>
				</g>
			</g>
		</g>
	</g>
</g>
</svg>
