<?xml version="1.0" encoding="utf-8"?>
<!-- Generator: Adobe Illustrator 16.0.3, SVG Export Plug-In . SVG Version: 6.00 Build 0)  -->
<!DOCTYPE svg PUBLIC "-//W3C//DTD SVG 1.1//EN" "http://www.w3.org/Graphics/SVG/1.1/DTD/svg11.dtd">
<svg version="1.1" id="Layer_1" xmlns="http://www.w3.org/2000/svg" xmlns:xlink="http://www.w3.org/1999/xlink" x="0px" y="0px"
	 width="3126.529px" height="2048px" viewBox="0 0 3126.529 2048" enable-background="new 0 0 3126.529 2048" xml:space="preserve">
<g id="Layer_x0020_1">
	<path fill="#215A73" d="M1582.48,1627.13l120.816-1353.38l1.585-17.752h-17.805H360.917h-17.802l1.581,17.752l120.689,1353.6
		l1.006,11.286l10.872,3.018l541.588,150.346h8.686l543.063-150.568l10.87-3.014l1.008-11.289L1582.48,1627.13z M1025.111,555.45
		h395.75l-11.912,138.491l-390.414,173.558l6.576,31.226h366.391l-42.175,483.262l-325.538,90.258l-325.432-90.106l-20.667-231.442
		h134l10.737,117.345l1.042,11.374l11.026,2.93l186.464,49.539l8.493-0.064l184.315-51.231l10.979-3.053l0.964-11.315
		l18.428-216.731l1.504-17.688h-17.788h-202.742h-358.43l-12.198-139.091l377.014-161.362l26.762-11.469l-6.386-31.354h-26.762
		H637.3l-11.81-133.074h397.936L1025.111,555.45L1025.111,555.45z"/>
</g>
<rect x="0" fill="none" width="2048" height="2048"/>
<g>
	<g>
		<g id="Page-1_1_">
			<g id="icon-6-mail-envelope-closed">
				<path id="mail-envelope-closed_1_" fill="#FFFFFF" d="M458.933,156.746c-117.029,0-211.923,94.634-211.923,210.943v1270.626
					c0,116.525,94.108,210.931,211.923,210.931H2679.58c117.152,0,211.961-94.61,211.961-210.931V367.695
					c0-116.527-94.102-210.929-211.961-210.929H458.933V156.746z M386.109,291.451c-20.495,19.431-33.319,47.014-33.319,77.59
					v1267.941c0,30.679,12.603,58.263,33.108,77.677l0,0l818.403-711.663L386.109,291.451L386.109,291.451L386.109,291.451z
					 M2752.701,291.349c20.467,19.43,33.061,47.008,33.061,77.682v1267.952c0,30.572-12.803,58.154-33.268,77.558l-818.252-711.544
					L2752.701,291.349L2752.701,291.349z M1855.018,1071.793l772.08,671.663H511.461l772.03-671.663l285.775,248.555
					L1855.018,1071.793L1855.018,1071.793z M1569.276,1182.851l1057.822-920.324H511.461L1569.276,1182.851L1569.276,1182.851z"/>
			</g>
		</g>
		<path fill="#215A73" d="M382.804,291.451c-20.513,19.431-33.325,47.014-33.325,77.59v1267.941
			c0,30.679,12.591,58.263,33.103,77.677l0,0l818.407-711.663L382.804,291.451L382.804,291.451L382.804,291.451z"/>
		<polygon fill="#215A73" points="1569.276,1182.028 2627.098,261.697 511.461,261.697 		"/>
		<path fill="#215A73" d="M2754.412,1714.659c20.527-19.424,33.342-47.029,33.342-77.602V369.133
			c0-30.673-12.641-58.268-33.125-77.683l0,0l-818.428,711.664L2754.412,1714.659L2754.412,1714.659L2754.412,1714.659z"/>
	</g>
	<polygon fill="#215A73" points="1855.018,1069.214 2627.098,1740.882 511.461,1740.882 1283.49,1069.214 1569.266,1317.763 
		1855.018,1069.214 	"/>
</g>
</svg>
