<?xml version="1.0" encoding="utf-8"?>
<!-- Generator: Adobe Illustrator 16.0.3, SVG Export Plug-In . SVG Version: 6.00 Build 0)  -->
<!DOCTYPE svg PUBLIC "-//W3C//DTD SVG 1.1//EN" "http://www.w3.org/Graphics/SVG/1.1/DTD/svg11.dtd">
<svg version="1.1" xmlns="http://www.w3.org/2000/svg" xmlns:xlink="http://www.w3.org/1999/xlink" x="0px" y="0px" width="2048px"
	 height="2048px" viewBox="0 0 2048 2048" enable-background="new 0 0 2048 2048" xml:space="preserve">
<g id="Layer_1" display="none">
	<g id="Layer_x0020_1" display="inline">
		<path fill="#215A73" d="M1582.459,1627.15L1703.274,273.76l1.585-17.753h-17.805H360.953h-17.803l1.583,17.753L465.416,1627.36
			l1.007,11.284l10.872,3.019l541.558,150.34h8.684l543.051-150.552l10.869-3.014l1.009-11.289L1582.459,1627.15z M1024.002,565.39
			h397.49l-2.388,26.791l-7.567,84.159l-1.994,22.374h-385.542h-0.57H789.149h-17.804l1.585,17.752l15.174,170.001l1.334,14.942
			h14.885h219.109h0.57h340.59h26.897l-2.433,26.761v0.063l-39.018,437.067l-1.491,16.754l-325.357,90.181l-324.809-90.177
			l-20.669-231.626h59.012h74.953l10.486,117.461l1.018,11.4l10.988,2.967l184.89,49.924h8.429l0.158-0.042l12.133-3.242v-0.044
			l173.021-46.699l10.985-2.968l1.021-11.4l19.27-215.313l1.588-17.752h-17.808h-203.854h-0.57H667.384l-39.472-442.544
			l-2.391-26.791h397.91H1024.002L1024.002,565.39z"/>
	</g>
	<rect x="0" display="inline" fill="none" width="2048" height="2048"/>
</g>
<g id="Layer_2">
	<g id="Layer_6">
		<g>
			<path fill="#215A73" d="M1021.215,1777.715c-20.484,0-40.967-5.28-58.815-15.86L776.038,1651.48
				c-27.752-15.843-14.537-21.139-5.284-24.429c37.015-13.237,44.939-15.871,84.583-38.338c3.968-2.65,9.914-1.317,13.882,1.306
				l143.416,85.245c5.268,2.656,12.538,2.656,17.161,0l558.416-322.486c5.29-2.629,8.603-9.248,8.603-15.192V693.257
				c0-6.613-3.313-11.892-8.603-15.193l-558.416-321.845c-5.279-3.303-11.903-3.303-17.161,0L454.868,678.063
				c-5.295,3.302-8.597,9.242-8.597,15.193v644.339c0,5.946,3.301,11.887,8.597,15.193l152.647,88.551
				c83.278,41.629,133.502-7.263,133.502-56.171V748.76c0-9.247,7.268-15.86,16.515-15.86h70.708c8.592,0,15.86,7.275,15.86,15.86
				v635.743c0,111.035-60.138,174.464-165.205,174.464c-32.381,0-57.488,0-128.874-35.025l-146.701-84.584
				c-36.354-21.14-58.821-60.14-58.821-101.767V693.257c0-41.634,22.467-80.622,58.821-101.771L961.732,268.99
				c35.032-19.822,82.622-19.822,117.632,0l558.427,322.495c36.344,21.145,58.827,60.132,58.827,101.771v644.339
				c0,41.622-22.483,80.622-58.827,101.762l-558.416,322.497C1062.182,1771.757,1041.698,1777.715,1021.215,1777.715z"/>
			<path fill="#215A73" d="M1193.695,1333.628c-244.51,0-295.391-112.357-295.391-206.188c0-9.259,7.269-15.872,15.86-15.872h72.03
				c7.924,0,14.549,5.957,15.86,13.893c10.58,73.358,43.611,110.353,190.985,110.353c117.632,0,167.855-26.424,167.855-89.207
				c0-35.683-13.871-62.789-196.931-80.628c-152.652-15.198-247.155-48.89-247.155-171.157
				c0-112.352,95.159-179.749,254.423-179.749c179.093,0,267.649,62.117,278.887,194.942c0.655,4.623-1.323,9.257-3.968,12.558
				c-3.302,3.302-7.27,5.286-11.903,5.286h-72.675c-7.281,0-13.872-5.286-15.86-12.56c-17.183-77.315-59.483-101.767-174.48-101.767
				c-128.201,0-143.405,44.935-143.405,77.977c0,40.316,17.838,52.22,190.996,75.342c171.813,22.462,253.102,54.848,253.102,175.125
				C1471.913,1263.575,1370.153,1333.628,1193.695,1333.628z"/>
		</g>
	</g>
</g>
</svg>
