<?xml version="1.0" encoding="utf-8"?>
<!-- Generator: Adobe Illustrator 16.0.3, SVG Export Plug-In . SVG Version: 6.00 Build 0)  -->
<!DOCTYPE svg PUBLIC "-//W3C//DTD SVG 1.1//EN" "http://www.w3.org/Graphics/SVG/1.1/DTD/svg11.dtd">
<svg version="1.1" xmlns="http://www.w3.org/2000/svg" xmlns:xlink="http://www.w3.org/1999/xlink" x="0px" y="0px"
	 width="1472.017px" height="2048px" viewBox="287.996 0 1472.017 2048" enable-background="new 287.996 0 1472.017 2048"
	 xml:space="preserve">
<g id="Layer_1" display="none">
	<g id="Layer_x0020_1" display="inline">
		<path fill="#215A73" d="M1582.459,1627.15L1703.274,273.76l1.585-17.753h-17.805H360.953h-17.803l1.583,17.753L465.416,1627.36
			l1.007,11.284l10.872,3.019l541.558,150.34h8.684l543.051-150.552l10.869-3.014l1.009-11.289L1582.459,1627.15z M1024.002,565.39
			h397.49l-2.388,26.791l-7.567,84.159l-1.994,22.374h-385.542h-0.57H789.149h-17.804l1.585,17.752l15.174,170.001l1.334,14.942
			h14.885h219.109h0.57h340.59h26.897l-2.433,26.761v0.063l-39.018,437.067l-1.491,16.754l-325.357,90.181l-324.809-90.177
			l-20.669-231.626h59.012h74.953l10.486,117.461l1.018,11.4l10.988,2.967l184.89,49.924h8.429l0.158-0.042l12.133-3.242v-0.044
			l173.021-46.699l10.985-2.968l1.021-11.4l19.27-215.313l1.588-17.752h-17.808h-203.854h-0.57H667.384l-39.472-442.544
			l-2.391-26.791h397.91H1024.002L1024.002,565.39z"/>
	</g>
	<rect x="0" display="inline" fill="none" width="2048" height="2048"/>
</g>
<g id="Layer_2">
	<g id="Layer_4">
		<g id="Layer_1_3_">
			<path fill="#215A73" d="M1416.863,369.527c0-62.636-50.342-113.52-113.524-113.52H744.667c-62.633,0-113.52,50.333-113.52,113.52
				v1305.797c0,62.638,50.336,113.514,113.52,113.514h558.115c62.639,0,113.515-50.342,113.515-113.514L1416.863,369.527
				L1416.863,369.527z M1103.137,386.307c0,10.067-8.383,17.899-17.9,17.899H965.008c-10.062,0-17.9-8.391-17.9-17.899v-1.118
				c0-10.075,8.394-17.9,17.9-17.9h120.796c10.073,0,17.899,8.378,17.899,17.9v1.118H1103.137z M1022.599,1725.099
				c-40.258,0-73.813-33.549-73.813-73.812c0-40.27,33.554-73.824,73.813-73.824c40.269,0,73.823,33.555,73.823,73.824
				C1096.422,1691.545,1063.435,1725.099,1022.599,1725.099z M1361.495,1520.418H688.187V514.371h673.865v1006.047H1361.495z"/>
		</g>
	</g>
</g>
</svg>
